<?xml version="1.0" ?><svg fill="none" height="24" viewBox="0 0 24 24" width="24" xmlns="http://www.w3.org/2000/svg"><g id="Basket"><path clip-rule="evenodd" d="M1.25 3C1.25 1.48122 2.48122 0.25 4 0.25H14C15.5188 0.25 16.75 1.48122 16.75 3V12.5C16.75 12.9142 16.4142 13.25 16 13.25C15.5858 13.25 15.25 12.9142 15.25 12.5V3C15.25 2.30964 14.6904 1.75 14 1.75H4C3.30964 1.75 2.75 2.30964 2.75 3V21C2.75 21.6904 3.30964 22.25 4 22.25H12C12.4142 22.25 12.75 22.5858 12.75 23C12.75 23.4142 12.4142 23.75 12 23.75H4C2.48122 23.75 1.25 22.5188 1.25 21V3Z" fill="black" fill-rule="evenodd" id="Rectangle 31 (Stroke)"/><path clip-rule="evenodd" d="M4.36201 0.605702C4.49867 0.384589 4.74007 0.25 5 0.25H13C13.2599 0.25 13.5013 0.384589 13.638 0.605702C13.7746 0.826814 13.7871 1.10292 13.6708 1.33541L12.9472 2.78262C12.6508 3.3755 12.0448 3.75 11.382 3.75H6.61803C5.95518 3.75 5.34922 3.3755 5.05279 2.78262L4.32918 1.33541C4.21293 1.10292 4.22536 0.826814 4.36201 0.605702ZM6.21353 1.75L6.39443 2.1118C6.43678 2.1965 6.52334 2.25 6.61803 2.25H11.382C11.4767 2.25 11.5632 2.1965 11.6056 2.1118L11.7865 1.75H6.21353Z" fill="black" fill-rule="evenodd" id="Rectangle 32 (Stroke)"/><path clip-rule="evenodd" d="M6.25 20C6.25 19.5858 6.58579 19.25 7 19.25H11C11.4142 19.25 11.75 19.5858 11.75 20C11.75 20.4142 11.4142 20.75 11 20.75H7C6.58579 20.75 6.25 20.4142 6.25 20Z" fill="black" fill-rule="evenodd" id="Vector 44 (Stroke)"/><path clip-rule="evenodd" d="M12.4543 18.2877C12.2765 17.221 13.0991 16.25 14.1805 16.25H21.8195C22.9009 16.25 23.7235 17.221 23.5457 18.2877L23.0183 21.4521C22.7973 22.7781 21.65 23.75 20.3057 23.75H15.6942C14.3499 23.75 13.2027 22.7781 12.9817 21.4521L12.4543 18.2877ZM14.1805 17.75C14.026 17.75 13.9085 17.8887 13.9339 18.0411L14.4613 21.2055C14.5617 21.8082 15.0832 22.25 15.6942 22.25H20.3057C20.9168 22.25 21.4383 21.8082 21.5387 21.2055L22.0661 18.0411C22.0915 17.8887 21.974 17.75 21.8195 17.75H14.1805Z" fill="black" fill-rule="evenodd" id="Rectangle 33 (Stroke)"/><path clip-rule="evenodd" d="M16 18.75C16.4142 18.75 16.75 19.0858 16.75 19.5V20.5C16.75 20.9142 16.4142 21.25 16 21.25C15.5858 21.25 15.25 20.9142 15.25 20.5V19.5C15.25 19.0858 15.5858 18.75 16 18.75Z" fill="black" fill-rule="evenodd" id="Vector 45 (Stroke)"/><path clip-rule="evenodd" d="M18 18.75C18.4142 18.75 18.75 19.0858 18.75 19.5V20.5C18.75 20.9142 18.4142 21.25 18 21.25C17.5858 21.25 17.25 20.9142 17.25 20.5V19.5C17.25 19.0858 17.5858 18.75 18 18.75Z" fill="black" fill-rule="evenodd" id="Vector 47 (Stroke)"/><path clip-rule="evenodd" d="M20 18.75C20.4142 18.75 20.75 19.0858 20.75 19.5V20.5C20.75 20.9142 20.4142 21.25 20 21.25C19.5858 21.25 19.25 20.9142 19.25 20.5V19.5C19.25 19.0858 19.5858 18.75 20 18.75Z" fill="black" fill-rule="evenodd" id="Vector 50 (Stroke)"/><path clip-rule="evenodd" d="M15.6646 14.3292C16.0351 14.1439 16.4856 14.2941 16.6708 14.6646L17.6708 16.6646C17.8561 17.0351 17.7059 17.4856 17.3354 17.6708C16.9649 17.856 16.5144 17.7059 16.3292 17.3354L15.3292 15.3354C15.1439 14.9649 15.2941 14.5144 15.6646 14.3292Z" fill="black" fill-rule="evenodd" id="Vector 48 (Stroke)"/><path clip-rule="evenodd" d="M20.3354 14.3292C20.7059 14.5144 20.8561 14.9649 20.6708 15.3354L19.6708 17.3354C19.4856 17.7059 19.0351 17.856 18.6646 17.6708C18.2941 17.4856 18.1439 17.0351 18.3292 16.6646L19.3292 14.6646C19.5144 14.2941 19.9649 14.1439 20.3354 14.3292Z" fill="black" fill-rule="evenodd" id="Vector 49 (Stroke)"/></g></svg>