<svg xmlns="http://www.w3.org/2000/svg" viewBox="0 0 74.5 73.03"><defs><style>.cls-1{fill:#8d96a0;}.cls-2{fill:#fff;}</style></defs><title>Recurso 153</title><g id="Capa_2" data-name="Capa 2"><g id="Capa_1-2" data-name="Capa 1"><rect class="cls-1" width="74.5" height="73.03" rx="16.46"/><path class="cls-2" d="M52.67,19.32a1.77,1.77,0,0,0-1.93-.39,1.79,1.79,0,0,0-1.09,1.64V54.23h3.54V43.6h3.55a1.77,1.77,0,0,0,1.77-1.77C58.51,25.34,52.91,19.56,52.67,19.32Zm.52,20.74v-12a44.92,44.92,0,0,1,1.75,12Z"/><path class="cls-2" d="M30.16,25.89V18.8H26.62v7.09a3.55,3.55,0,0,1-1.77,3.05V18.8H21.3V28.94a3.55,3.55,0,0,1-1.77-3.05V18.8H16v7.09a7.08,7.08,0,0,0,5.31,6.83V54.23h3.55V32.72A7.08,7.08,0,0,0,30.16,25.89Z"/><path class="cls-2" d="M37.25,31.2A10.63,10.63,0,1,0,47.88,41.83,10.64,10.64,0,0,0,37.25,31.2Zm0,17.72a7.09,7.09,0,1,1,7.09-7.09A7.1,7.1,0,0,1,37.25,48.92Z"/><path class="cls-2" d="M39.91,38.29A2.66,2.66,0,0,0,37.25,41a2.66,2.66,0,1,0-5.32,0c0,2.65,5.32,6.2,5.32,6.2s5.31-3.55,5.31-6.2A2.66,2.66,0,0,0,39.91,38.29Z"/></g></g></svg>